<svg width="241" height="265" viewBox="0 0 241 265" fill="none" xmlns="http://www.w3.org/2000/svg">
<path d="M101.094 22.1424C79.4943 4.14243 54.4277 6.64243 44.5943 10.1424C76.5943 14.1424 75.0943 16.6424 86.0943 27.6424C94.8943 36.4424 109.761 40.3091 116.094 41.1424C143.61 41.8218 162.975 35.0968 172.17 30.0934C174.877 28.6202 177.499 26.9219 180.398 25.8748C219.096 11.8959 221.795 65.1983 218.094 94.6424C214.852 161.042 176.077 221.642 157.094 243.642C147.494 258.442 143.094 218.642 141.594 197.642C134.594 256.642 140.094 266.142 154.594 264.142C178.094 257.142 221.928 170.476 230.094 141.142C244.894 79.9424 240.884 45.6664 237.029 36.1784C232.594 23.6424 227.094 12.6424 212.529 5.17835C189.785 -6.4768 174.033 4.14244 162.094 11.6424C130.894 31.2424 108.428 26.8091 101.094 22.1424Z" fill="#EED6CE"/>
<path d="M66.0943 35.1424C115.294 68.7424 163.761 58.1425 181.094 48.6425C169.261 65.3091 132.494 90.9425 80.0943 60.1425C27.6943 29.3425 20.5943 71.6425 23.5943 96.6425C25.761 122.642 35.9943 182.642 59.5943 214.642C83.1943 246.642 90.761 242.642 91.5943 236.642C88.3943 206.642 92.9277 187.809 95.5943 182.142C105.194 157.742 130.928 165.976 142.594 173.142C96.1943 162.742 97.261 212.809 103.594 239.142C107.194 267.942 94.5943 262.142 87.0943 258.642C24.0943 213.142 2.59433 140.142 0.0943259 85.1425C-1.49658 50.1425 16.8943 1.54245 66.0943 35.1424Z" fill="#2A5055"/>
<path d="M52.568 89.0873L45.369 93.5439C44.6551 93.9858 44.7707 95.0577 45.5625 95.3371L52.0943 97.6425C104.697 147.693 135.982 148.075 195.094 97.6425L199.791 95.8361C200.548 95.5448 200.662 94.5207 199.987 94.0707L194.149 90.1789C193.484 89.7359 192.594 90.2123 192.594 91.011V96.6425C133.094 130.642 107.094 127.642 54.0943 96.6425V89.9376C54.0943 89.1541 53.2342 88.6749 52.568 89.0873Z" fill="#2A5055"/>
</svg>
